<svg xmlns="http://www.w3.org/2000/svg" viewBox="0 0 944 850" width="944" height="850"><defs><style type="text/css">@import url('https://fonts.googleapis.com/css?family=Roboto+Mono:400|Roboto:400,&amp;subset=cyrillic,cyrillic-ext,greek,greek-ext,latin-ext')</style></defs><rect x="0" y="0" width="944" height="850" fill="#ffffff"/><text x="472" y="109" text-anchor="middle" font-size="64px" font-family="Roboto,sans-serif" fill="#52565f">User Flow Chart</text><g transform="translate(45,213)"><g><g><g transform="translate(259, 464)"><path d="M31.5 28 L112 28 L192.5 28 C194.5 28 196 29.5 196 31.5 L196 64 L196 96.5 C196 98.5 194.5 100 192.5 100 L112 100 L31.5 100 C29.5 100 28 98.5 28 96.5 L28 64 L28 31.5 C28 29.5 29.5 28 31.5 28 Z" fill="#ffffff" stroke="#4d9ef6" stroke-width="2"/><g transform="translate(36, 34)"><text font-size="14" font-family="Roboto,sans-serif" x="76" y="35" text-anchor="middle" fill="#52565f">User</text></g></g><g transform="translate(91, 272)"><path d="M64 28 L112 28 L160 28 C182 28 196 42 196 64 L196 64 L196 64 C196 86 182 100 160 100 L112 100 L64 100 C42 100 28 86 28 64 L28 64 L28 64 C28 42 42 28 64 28 Z" fill="#ffffff" stroke="#52565F" stroke-width="2"/><g transform="translate(36, 34)"><text font-size="14" font-family="Roboto,sans-serif" x="76" y="35" text-anchor="middle" fill="#52565f">Netlify CDN</text></g></g><g transform="translate(427, 272)"><path d="M64 28 L112 28 L160 28 C182 28 196 42 196 64 L196 64 L196 64 C196 86 182 100 160 100 L112 100 L64 100 C42 100 28 86 28 64 L28 64 L28 64 C28 42 42 28 64 28 Z" fill="#ffffff" stroke="#52565F" stroke-width="2"/><g transform="translate(36, 34)"><text font-size="14" font-family="Roboto,sans-serif" x="76" y="35" text-anchor="middle" fill="#52565f">Fauna DB</text></g></g><g transform="translate(91, 16)"><path d="M64 28 L112 28 L160 28 C182 28 196 42 196 64 L196 64 L196 64 C196 86 182 100 160 100 L112 100 L64 100 C42 100 28 86 28 64 L28 64 L28 64 C28 42 42 28 64 28 Z" fill="#ffffff" stroke="#52565F" stroke-width="2"/><g transform="translate(36, 34)"><text font-size="14" font-family="Roboto,sans-serif" x="76" y="35" text-anchor="middle" fill="#52565f">GitHub VCS</text></g></g><g transform="translate(427, 16)"><path d="M31.5 28 L112 28 L192.5 28 C194.5 28 196 29.5 196 31.5 L196 64 L196 96.5 C196 98.5 194.5 100 192.5 100 L112 100 L31.5 100 C29.5 100 28 98.5 28 96.5 L28 64 L28 31.5 C28 29.5 29.5 28 31.5 28 Z" fill="#ffffff" stroke="#FFD663" stroke-width="2"/><g transform="translate(36, 34)"><text font-size="14" font-family="Roboto,sans-serif" x="76" y="35" text-anchor="middle" fill="#52565f">Developer</text></g></g><g transform="translate(91, 144)"><path d="M64 28 L112 28 L160 28 C182 28 196 42 196 64 L196 64 L196 64 C196 86 182 100 160 100 L112 100 L64 100 C42 100 28 86 28 64 L28 64 L28 64 C28 42 42 28 64 28 Z" fill="#ffffff" stroke="#52565F" stroke-width="2"/><g transform="translate(36, 34)"><text font-size="14" font-family="Roboto,sans-serif" x="76" y="25" text-anchor="middle" fill="#52565f">Netlify CI</text><text font-size="14" font-family="Roboto,sans-serif" x="76" y="45" text-anchor="middle" fill="#52565f">Build React app</text></g></g></g><g><g><path fill="none" stroke="#4d9ef6" stroke-width="2" stroke-dasharray="0px 0px" d="M 286,528L 259,528L 101,528Q91,528 91,518L 91,346Q91,336 101,336L 116,336"/><path transform="translate( 284, 531 ) rotate( 270 )" d="M3 6C4.65685 6 6 4.65685 6 3C6 1.34315 4.65685 0 3 0C1.34315 0 0 1.34315 0 3C0 4.65685 1.34315 6 3 6Z" fill="#4d9ef6"/><path transform="translate( 118, 329 ) rotate( 450 )" d="M6.34003 0.275664C6.70452 -0.0918881 7.29548 -0.0918881 7.65997 0.275664L13.7266 6.39331C14.0911 6.76086 14.0911 7.35678 13.7266 7.72434C13.3621 8.09189 12.7712 8.09189 12.4067 7.72434L7 2.2722L1.5933 7.72434C1.22881 8.09189 0.637856 8.09189 0.273367 7.72434C-0.0911224 7.35678 -0.0911224 6.76086 0.273367 6.39331L6.34003 0.275664Z" fill="#4d9ef6"/></g><g><path fill="none" stroke="#4d9ef6" stroke-width="2" stroke-dasharray="0px 0px" d="M 371,491L 371,464L 371,346Q371,336 381,336L 427,336L 452,336"/><path transform="translate( 368, 489 ) rotate( 360 )" d="M3 6C4.65685 6 6 4.65685 6 3C6 1.34315 4.65685 0 3 0C1.34315 0 0 1.34315 0 3C0 4.65685 1.34315 6 3 6Z" fill="#4d9ef6"/><path transform="translate( 454, 329 ) rotate( 450 )" d="M6.34003 0.275664C6.70452 -0.0918881 7.29548 -0.0918881 7.65997 0.275664L13.7266 6.39331C14.0911 6.76086 14.0911 7.35678 13.7266 7.72434C13.3621 8.09189 12.7712 8.09189 12.4067 7.72434L7 2.2722L1.5933 7.72434C1.22881 8.09189 0.637856 8.09189 0.273367 7.72434C-0.0911224 7.35678 -0.0911224 6.76086 0.273367 6.39331L6.34003 0.275664Z" fill="#4d9ef6"/></g><g><path fill="none" stroke="#CC92F1" stroke-width="2" stroke-dasharray="0px 0px" d="M 456,528L 483,528L 529,528Q539,528 539,518L 539,400L 539,375"/><path transform="translate( 458, 525 ) rotate( 450 )" d="M3 6C4.65685 6 6 4.65685 6 3C6 1.34315 4.65685 0 3 0C1.34315 0 0 1.34315 0 3C0 4.65685 1.34315 6 3 6Z" fill="#CC92F1"/><path transform="translate( 532, 373 ) rotate( 360 )" d="M6.34003 0.275664C6.70452 -0.0918881 7.29548 -0.0918881 7.65997 0.275664L13.7266 6.39331C14.0911 6.76086 14.0911 7.35678 13.7266 7.72434C13.3621 8.09189 12.7712 8.09189 12.4067 7.72434L7 2.2722L1.5933 7.72434C1.22881 8.09189 0.637856 8.09189 0.273367 7.72434C-0.0911224 7.35678 -0.0911224 6.76086 0.273367 6.39331L6.34003 0.275664Z" fill="#CC92F1"/></g><g><path fill="none" stroke="#4d9ef6" stroke-width="2" stroke-dasharray="0px 0px" d="M 288,336L 305,336Q315,336 315,346L 315,454Q315,464 305,464L 269,464Q259,464 259,474L 259,518Q259,528 269,528L 284,528"/><path transform="translate( 290, 333 ) rotate( 450 )" d="M3 6C4.65685 6 6 4.65685 6 3C6 1.34315 4.65685 0 3 0C1.34315 0 0 1.34315 0 3C0 4.65685 1.34315 6 3 6Z" fill="#4d9ef6"/><path transform="translate( 286, 521 ) rotate( 450 )" d="M6.34003 0.275664C6.70452 -0.0918881 7.29548 -0.0918881 7.65997 0.275664L13.7266 6.39331C14.0911 6.76086 14.0911 7.35678 13.7266 7.72434C13.3621 8.09189 12.7712 8.09189 12.4067 7.72434L7 2.2722L1.5933 7.72434C1.22881 8.09189 0.637856 8.09189 0.273367 7.72434C-0.0911224 7.35678 -0.0911224 6.76086 0.273367 6.39331L6.34003 0.275664Z" fill="#4d9ef6"/></g><g><path fill="none" stroke="#4d9ef6" stroke-width="2" stroke-dasharray="0px 0px" d="M 624,336L 641,336Q651,336 651,346L 651,454Q651,464 641,464L 381,464Q371,464 371,474L 371,489"/><path transform="translate( 626, 333 ) rotate( 450 )" d="M3 6C4.65685 6 6 4.65685 6 3C6 1.34315 4.65685 0 3 0C1.34315 0 0 1.34315 0 3C0 4.65685 1.34315 6 3 6Z" fill="#4d9ef6"/><path transform="translate( 378, 491 ) rotate( 540 )" d="M6.34003 0.275664C6.70452 -0.0918881 7.29548 -0.0918881 7.65997 0.275664L13.7266 6.39331C14.0911 6.76086 14.0911 7.35678 13.7266 7.72434C13.3621 8.09189 12.7712 8.09189 12.4067 7.72434L7 2.2722L1.5933 7.72434C1.22881 8.09189 0.637856 8.09189 0.273367 7.72434C-0.0911224 7.35678 -0.0911224 6.76086 0.273367 6.39331L6.34003 0.275664Z" fill="#4d9ef6"/></g><g><path fill="none" stroke="#4d9ef6" stroke-width="2" stroke-dasharray="0px 0px" d="M 539,373L 539,400L 539,518Q539,528 529,528L 483,528L 458,528"/><path transform="translate( 542, 375 ) rotate( 180 )" d="M3 6C4.65685 6 6 4.65685 6 3C6 1.34315 4.65685 0 3 0C1.34315 0 0 1.34315 0 3C0 4.65685 1.34315 6 3 6Z" fill="#4d9ef6"/><path transform="translate( 456, 535 ) rotate( 630 )" d="M6.34003 0.275664C6.70452 -0.0918881 7.29548 -0.0918881 7.65997 0.275664L13.7266 6.39331C14.0911 6.76086 14.0911 7.35678 13.7266 7.72434C13.3621 8.09189 12.7712 8.09189 12.4067 7.72434L7 2.2722L1.5933 7.72434C1.22881 8.09189 0.637856 8.09189 0.273367 7.72434C-0.0911224 7.35678 -0.0911224 6.76086 0.273367 6.39331L6.34003 0.275664Z" fill="#4d9ef6"/></g><g><path fill="none" stroke="#52565F" stroke-width="2" stroke-dasharray="0px 0px" d="M 203,117L 203,144L 203,144L 203,169"/><path transform="translate( 206, 119 ) rotate( 180 )" d="M3 6C4.65685 6 6 4.65685 6 3C6 1.34315 4.65685 0 3 0C1.34315 0 0 1.34315 0 3C0 4.65685 1.34315 6 3 6Z" fill="#52565F"/><path transform="translate( 210, 171 ) rotate( 540 )" d="M6.34003 0.275664C6.70452 -0.0918881 7.29548 -0.0918881 7.65997 0.275664L13.7266 6.39331C14.0911 6.76086 14.0911 7.35678 13.7266 7.72434C13.3621 8.09189 12.7712 8.09189 12.4067 7.72434L7 2.2722L1.5933 7.72434C1.22881 8.09189 0.637856 8.09189 0.273367 7.72434C-0.0911224 7.35678 -0.0911224 6.76086 0.273367 6.39331L6.34003 0.275664Z" fill="#52565F"/></g><g><path fill="none" stroke="#FFD663" stroke-width="2" stroke-dasharray="0px 0px" d="M 454,80L 427,80L 315,80L 290,80"/><path transform="translate( 452, 83 ) rotate( 270 )" d="M3 6C4.65685 6 6 4.65685 6 3C6 1.34315 4.65685 0 3 0C1.34315 0 0 1.34315 0 3C0 4.65685 1.34315 6 3 6Z" fill="#FFD663"/><path transform="translate( 288, 87 ) rotate( 630 )" d="M6.34003 0.275664C6.70452 -0.0918881 7.29548 -0.0918881 7.65997 0.275664L13.7266 6.39331C14.0911 6.76086 14.0911 7.35678 13.7266 7.72434C13.3621 8.09189 12.7712 8.09189 12.4067 7.72434L7 2.2722L1.5933 7.72434C1.22881 8.09189 0.637856 8.09189 0.273367 7.72434C-0.0911224 7.35678 -0.0911224 6.76086 0.273367 6.39331L6.34003 0.275664Z" fill="#FFD663"/></g><g><path fill="none" stroke="#FFD663" stroke-width="2" stroke-dasharray="0px 0px" d="M 539,117L 539,144L 539,272L 539,297"/><path transform="translate( 542, 119 ) rotate( 180 )" d="M3 6C4.65685 6 6 4.65685 6 3C6 1.34315 4.65685 0 3 0C1.34315 0 0 1.34315 0 3C0 4.65685 1.34315 6 3 6Z" fill="#FFD663"/><path transform="translate( 546, 299 ) rotate( 540 )" d="M6.34003 0.275664C6.70452 -0.0918881 7.29548 -0.0918881 7.65997 0.275664L13.7266 6.39331C14.0911 6.76086 14.0911 7.35678 13.7266 7.72434C13.3621 8.09189 12.7712 8.09189 12.4067 7.72434L7 2.2722L1.5933 7.72434C1.22881 8.09189 0.637856 8.09189 0.273367 7.72434C-0.0911224 7.35678 -0.0911224 6.76086 0.273367 6.39331L6.34003 0.275664Z" fill="#FFD663"/></g><g><path fill="none" stroke="#52565F" stroke-width="2" stroke-dasharray="0px 0px" d="M 203,245L 203,272L 203,272L 203,297"/><path transform="translate( 206, 247 ) rotate( 180 )" d="M3 6C4.65685 6 6 4.65685 6 3C6 1.34315 4.65685 0 3 0C1.34315 0 0 1.34315 0 3C0 4.65685 1.34315 6 3 6Z" fill="#52565F"/><path transform="translate( 210, 299 ) rotate( 540 )" d="M6.34003 0.275664C6.70452 -0.0918881 7.29548 -0.0918881 7.65997 0.275664L13.7266 6.39331C14.0911 6.76086 14.0911 7.35678 13.7266 7.72434C13.3621 8.09189 12.7712 8.09189 12.4067 7.72434L7 2.2722L1.5933 7.72434C1.22881 8.09189 0.637856 8.09189 0.273367 7.72434C-0.0911224 7.35678 -0.0911224 6.76086 0.273367 6.39331L6.34003 0.275664Z" fill="#52565F"/></g></g><g><g transform="translate(535, 468)"><rect width="208" height="104" fill="none" stroke="none" stroke-width="2" stroke-dasharray="0px 0px"/><g><g><g transform="translate(16, 16)"><g transform="translate(0, 0)"><text x="0" y="13.3" fill="#52565f" font-size="14" font-variant="" font-family="Roboto,sans-serif" font-weight="400">Authenticate with</text></g><g transform="translate(0, 16.8)"><text x="0" y="13.3" fill="#52565f" font-size="14" font-variant="" font-family="Roboto,sans-serif" font-weight="400">username &amp; password hash,</text></g><g transform="translate(0, 33.6)"><text x="0" y="13.3" fill="#52565f" font-size="14" font-variant="" font-family="Roboto,sans-serif" font-weight="400">returns access token</text></g></g></g></g></g><g transform="translate(647, 324)"><rect width="184" height="96" fill="none" stroke="none" stroke-width="2" stroke-dasharray="0px 0px"/><g><g><g transform="translate(16, 16)"><g transform="translate(0, 0)"><text x="0" y="13.3" fill="#52565f" font-size="14" font-variant="" font-family="Roboto,sans-serif" font-weight="400">Return documents with </text></g><g transform="translate(0, 16.8)"><text x="0" y="13.3" fill="#52565f" font-size="14" font-variant="" font-family="Roboto,sans-serif" font-weight="400">the same owner as the </text></g><g transform="translate(0, 33.6)"><text x="0" y="13.3" fill="#52565f" font-size="14" font-variant="" font-family="Roboto,sans-serif" font-weight="400">authenticated user / </text></g><g transform="translate(0, 50.400000000000006)"><text x="0" y="13.3" fill="#52565f" font-size="14" font-variant="" font-family="Roboto,sans-serif" font-weight="400">Return operation result</text></g></g></g></g></g><g transform="translate(319, 260)"><rect width="184" height="80" fill="none" stroke="none" stroke-width="2" stroke-dasharray="0px 0px"/><g><g><g transform="translate(16, 16)"><g transform="translate(0, 0)"><text x="0" y="13.3" fill="#52565f" font-size="14" font-variant="" font-family="Roboto,sans-serif" font-weight="400">Request data with </text></g><g transform="translate(0, 16.8)"><text x="0" y="13.3" fill="#52565f" font-size="14" font-variant="" font-family="Roboto,sans-serif" font-weight="400">access token / Run </text></g><g transform="translate(0, 33.6)"><text x="0" y="13.3" fill="#52565f" font-size="14" font-variant="" font-family="Roboto,sans-serif" font-weight="400">CRUD queries</text></g></g></g></g></g><g transform="translate(279, 20)"><rect width="184" height="64" fill="none" stroke="none" stroke-width="2" stroke-dasharray="0px 0px"/><g><g><g transform="translate(16, 16)"><g transform="translate(0, 0)"><text x="25.6187481880188" y="13.3" fill="#52565f" font-size="14" font-variant="" font-family="Roboto,sans-serif" font-weight="400">Push React app </text></g><g transform="translate(0, 16.8)"><text x="18.356250762939453" y="13.3" fill="#52565f" font-size="14" font-variant="" font-family="Roboto,sans-serif" font-weight="400">changes to GitHub</text></g></g></g></g></g><g transform="translate(535, 164)"><rect width="184" height="64" fill="none" stroke="none" stroke-width="2" stroke-dasharray="0px 0px"/><g><g><g transform="translate(16, 16)"><g transform="translate(0, 0)"><text x="0" y="13.3" fill="#52565f" font-size="14" font-variant="" font-family="Roboto,sans-serif" font-weight="400">Make changes to the </text></g><g transform="translate(0, 16.8)"><text x="0" y="13.3" fill="#52565f" font-size="14" font-variant="" font-family="Roboto,sans-serif" font-weight="400">Database</text></g></g></g></g></g><g transform="translate(23, 236)"><rect width="184" height="64" fill="none" stroke="none" stroke-width="2" stroke-dasharray="0px 0px"/><g><g><g transform="translate(16, 16)"><g transform="translate(0, 0)"><text x="5.575005531311035" y="13.3" fill="#52565f" font-size="14" font-variant="" font-family="Roboto,sans-serif" font-weight="400">Deploy static files from </text></g><g transform="translate(0, 16.8)"><text x="59.25" y="13.3" fill="#52565f" font-size="14" font-variant="" font-family="Roboto,sans-serif" font-weight="400">built React app</text></g></g></g></g></g><g transform="translate(95, 492)"><rect width="184" height="48" fill="none" stroke="none" stroke-width="2" stroke-dasharray="0px 0px"/><g><g><g transform="translate(16, 16)"><g transform="translate(0, 0)"><text x="0" y="13.3" fill="#52565f" font-size="14" font-variant="" font-family="Roboto,sans-serif" font-weight="400">Request webpage</text></g></g></g></g></g><g transform="translate(23, 116)"><rect width="184" height="48" fill="none" stroke="none" stroke-width="2" stroke-dasharray="0px 0px"/><g><g><g transform="translate(16, 16)"><g transform="translate(0, 0)"><text x="39.61250305175781" y="13.3" fill="#52565f" font-size="14" font-variant="" font-family="Roboto,sans-serif" font-weight="400">Webhook on Push</text></g></g></g></g></g><g transform="translate(143, 420)"><rect width="176" height="48" fill="none" stroke="none" stroke-width="2" stroke-dasharray="0px 0px"/><g><g><g transform="translate(16, 16)"><g transform="translate(0, 0)"><text x="6.9875030517578125" y="13.3" fill="#52565f" font-size="14" font-variant="" font-family="Roboto,sans-serif" font-weight="400">Return built React app</text></g></g></g></g></g></g></g></g></svg>